<?xml version="1.0" encoding="UTF-8"?><svg id="Layer_1" xmlns="http://www.w3.org/2000/svg" xmlns:xlink="http://www.w3.org/1999/xlink" viewBox="0 0 203.28 355.03"><defs><style>.cls-1{fill:url(#linear-gradient-2);}.cls-2{fill:url(#linear-gradient);}.cls-3{fill:#fff;}</style><linearGradient id="linear-gradient" x1="182.98" y1="70.45" x2="10.67" y2="70.45" gradientUnits="userSpaceOnUse"><stop offset="0" stop-color="#fe933a"/><stop offset=".1" stop-color="#f48238"/><stop offset=".37" stop-color="#df5c34"/><stop offset=".62" stop-color="#cf4032"/><stop offset=".84" stop-color="#c62f30"/><stop offset="1" stop-color="#c32a30"/></linearGradient><linearGradient id="linear-gradient-2" x1="-26985.03" y1="358.22" x2="-27157.34" y2="358.22" gradientTransform="translate(-26982.15 496.94) rotate(-180)" xlink:href="#linear-gradient"/></defs><path class="cls-3" d="M194.1,315.87c-2.54,0-4.73-.84-6.48-2.53-1.75-1.69-2.59-3.83-2.59-6.42s.84-4.73,2.59-6.42c1.75-1.69,3.94-2.54,6.48-2.54s4.73.85,6.48,2.54c1.8,1.69,2.7,3.83,2.7,6.42s-.9,4.73-2.7,6.42c-1.75,1.69-3.94,2.53-6.48,2.53ZM194.1,299.54c-4.22,0-7.27,3.04-7.27,7.38s3.04,7.27,7.27,7.27,7.32-2.99,7.32-7.27-3.1-7.38-7.32-7.38ZM190.77,311.87v-10.31h3.66c1.97,0,3.32,1.35,3.32,3.21,0,1.35-.56,2.37-1.69,2.99l2.48,4.11h-2.25l-2.25-3.77h-1.35v3.77h-1.92ZM192.69,306.52h1.69c.85,0,1.46-.73,1.46-1.63,0-.85-.62-1.52-1.46-1.52h-1.69v3.15Z"/><path class="cls-3" d="M57.19,270.87v20.4h-9.35v-59.79h8.78v5.95c.39.02.54.09.86-.19.85-.75,1.78-2.22,2.82-3.07,6.19-5.07,16.08-4.81,21.83.84,7.72,7.58,8.2,24.73,2.77,33.67-6.01,9.89-20.48,11.73-27.71,2.18ZM67.05,238.37c-10.62.68-11.17,15.29-9.09,23.09,2.72,10.2,16.44,10.68,19.61-.1,2.46-8.34,1.27-23.75-10.52-22.99Z"/><path class="cls-3" d="M105.1,256.14c.87,12.26,11.77,14.71,22.03,11.69,1.94-.57,3.54-1.55,5.45-2.06v8.5c-15.86,6.14-34.85,3.12-37.11-16.58-1.78-15.5,6.62-28.49,23.34-27.02,9.7.85,15.61,8.73,16.58,17.99.16,1.54.29,5.29.04,6.77-.06.32-.15.53-.43.71h-29.89ZM105.38,249.05h20.68c-.58-4.74-2.8-9.59-7.86-10.7-7.44-1.62-11.82,3.94-12.82,10.7Z"/><path class="cls-3" d="M17.77,230.72c18.26-1.94,26.45,13.08,23.5,29.45-2.31,12.84-14.09,19.43-26.5,16.17-20.66-5.44-19.64-43.22,2.99-45.62ZM19.75,238.37c-10.24,1.08-11.2,16.6-8.37,24.08,3.34,8.83,15.12,9.33,18.88.31,3.47-8.34,1.98-25.71-10.51-24.39Z"/><path class="cls-3" d="M180.02,275.97h-9.63v-30.46c0-.45-.82-2.92-1.08-3.45-2.21-4.53-8.85-4.47-12.61-2.02-2.88,1.87-5.01,6.31-5.01,9.72v26.21h-9.35v-44.49h8.78v5.95c.39.02.54.09.86-.19.85-.75,1.78-2.22,2.82-3.07,5.15-4.22,14.72-5.15,19.97-.7,4.1,3.47,4.99,9.22,5.25,14.31.47,9.26-.34,18.89,0,28.19Z"/><path class="cls-3" d="M183.89,355.03h-10.55l-13.89-22.17h-7.35v22.17h-9.62v-56.1h21.51c6.07,0,13.07,4.71,15.3,10.35,3.79,9.58-.73,19.28-10.35,22.64l14.95,23.11ZM151.83,324.84h11.62c1.62,0,4.87-1.89,5.86-3.22,4.43-5.94.35-14.68-7.2-14.68h-10.29v17.9Z"/><polygon class="cls-3" points="57.34 298.92 57.34 321.9 81.65 321.9 81.65 298.92 91 298.92 91 355.03 81.65 355.03 81.65 330.45 57.34 330.45 57.34 355.03 47.99 355.03 47.99 298.92 57.34 298.92"/><polygon class="cls-3" points="36.95 298.92 36.95 307.21 13.44 307.21 13.44 322.97 35.62 322.97 35.62 331.25 13.44 331.25 13.44 355.03 4.09 355.03 4.09 298.92 36.95 298.92"/><polygon class="cls-3" points="132.06 298.92 132.06 306.67 121.11 306.67 121.11 347.28 132.06 347.28 132.06 355.03 101.07 355.03 101.07 347.28 112.02 347.28 112.02 306.67 101.07 306.67 101.07 298.92 132.06 298.92"/><path class="cls-2" d="M182.98,4.55c0,21.76-7.27,41.81-19.51,57.87-2.23,2.92-4.72,5.63-7.16,8.36-23.47,26.33-72.16,28.97-74.71,29.18-14.78,1.18-28.62,5.72-40.73,12.86-11.98,7.06-22.29,16.66-30.19,28.06,0-.27,0-.54,0-.82,0-22.01,7.96-42.16,21.16-57.72,3.31-3.9,6.94-7.51,10.86-10.78,1.04-.87,2.1-1.72,3.18-2.54,11.86-9.05,26.06-15.19,41.53-17.37-4.41-3.89-10.2-6.25-16.54-6.25s-11.7,2.19-16.05,5.82c1.03-1.18,2.09-2.32,3.2-3.43,12.08-12.08,28.77-19.55,47.2-19.55,2.72,0,5.4.16,8.03.48,1.9.4,3.83.72,5.78.95,2.63.31,5.31.48,8.03.48,23.35,0,43.91-11.99,55.84-30.16.07,1.51.11,3.03.11,4.55Z"/><path class="cls-1" d="M2.88,204.62c0-21.76,7.27-41.81,19.51-57.87,2.23-2.92,4.72-5.63,7.16-8.36,23.47-26.33,72.16-28.97,74.71-29.18,14.78-1.18,28.62-5.72,40.73-12.86,11.98-7.06,22.29-16.66,30.19-28.06,0,.27,0,.54,0,.82,0,22.01-7.96,42.16-21.16,57.72-3.31,3.9-6.94,7.51-10.86,10.78-1.04.87-2.1,1.72-3.18,2.54-11.86,9.05-26.06,15.19-41.53,17.37,4.41,3.89,10.2,6.25,16.54,6.25,6.11,0,11.7-2.19,16.05-5.82-1.03,1.18-2.09,2.32-3.2,3.43-12.08,12.08-28.77,19.55-47.2,19.55-2.72,0-5.4-.16-8.03-.48-1.9-.4-3.83-.72-5.78-.95-2.63-.31-5.31-.48-8.03-.48-23.35,0-43.91,11.99-55.84,30.16-.07-1.51-.11-3.03-.11-4.55Z"/></svg>